<?xml version="1.0" standalone="no"?>
<!DOCTYPE svg PUBLIC "-//W3C//DTD SVG 20010904//EN"
 "http://www.w3.org/TR/2001/REC-SVG-20010904/DTD/svg10.dtd">
<svg version="1.0" xmlns="http://www.w3.org/2000/svg"
 width="500.000000pt" height="500.000000pt" viewBox="0 0 500.000000 500.000000"
 preserveAspectRatio="xMidYMid meet">

<g transform="translate(0.000000,500.000000) scale(0.100000,-0.100000)"
fill="white" stroke="none">
<path d="M3415 4514 c-16 -2 -68 -12 -114 -20 -59 -11 -123 -15 -214 -13 -148
4 -162 -3 -98 -49 56 -41 177 -78 348 -107 250 -43 341 -78 578 -224 66 -41
124 -77 128 -81 5 -4 -18 -52 -51 -106 -32 -55 -89 -154 -126 -222 -52 -94
-72 -122 -84 -118 -125 36 -289 77 -335 84 -74 12 -77 6 -77 -130 0 -238 101
-691 210 -946 l29 -67 54 115 c30 63 57 128 60 143 3 17 -18 116 -48 235 -72
284 -100 452 -75 452 5 0 81 -36 167 -80 87 -43 167 -81 178 -84 16 -4 25 4
46 42 54 98 200 374 298 564 l102 196 -58 35 c-207 125 -557 309 -663 347 -80
30 -186 44 -255 34z"/>
<path d="M2592 4317 c-202 -262 -455 -417 -712 -436 -133 -10 -403 -5 -465 9
-26 6 -49 9 -51 7 -7 -7 105 -86 165 -116 188 -95 467 -105 667 -23 196 79
372 263 445 464 27 73 50 198 36 198 -3 0 -41 -46 -85 -103z"/>
<path d="M1040 3672 c-47 -49 -139 -129 -205 -179 -66 -50 -136 -106 -156
-125 -67 -61 -139 -239 -254 -618 -74 -246 -75 -250 -37 -282 16 -13 76 -39
133 -57 144 -45 181 -58 202 -66 16 -7 17 3 17 122 0 135 -6 158 -45 165 -32
5 -30 59 10 212 64 252 129 386 261 542 87 103 116 154 145 259 34 126 26 129
-71 27z"/>
<path d="M3847 2779 c-136 -280 -230 -446 -382 -674 -386 -583 -840 -1033
-1341 -1331 -187 -112 -197 -120 -189 -162 9 -51 53 -163 74 -191 13 -18 23
-22 40 -16 34 10 374 241 493 333 57 44 150 124 208 177 58 54 130 115 162
136 130 89 338 180 555 243 201 58 268 66 596 73 163 3 297 10 297 15 0 4 -39
86 -86 181 -249 497 -425 901 -426 976 0 43 7 72 74 294 27 93 48 171 45 174
-3 3 -57 -100 -120 -228z m-117 -579 c0 -21 51 -154 154 -404 37 -87 65 -160
64 -161 -2 -1 -61 -12 -131 -25 -113 -19 -184 -36 -464 -108 -35 -9 -65 -13
-69 -10 -3 4 47 91 112 195 65 103 156 258 202 343 84 154 107 190 124 190 4
0 8 -9 8 -20z"/>
<path d="M1340 2821 c-19 -22 -71 -99 -115 -173 -43 -73 -82 -137 -86 -141 -4
-5 -62 10 -129 32 -135 45 -155 48 -164 25 -8 -20 -8 -111 0 -195 l7 -66 180
-61 c100 -34 184 -58 188 -54 4 4 26 66 49 137 50 153 85 235 99 235 49 0 275
-392 419 -725 127 -294 288 -751 277 -786 -11 -32 -51 -64 -245 -193 -187
-124 -406 -258 -625 -381 -193 -108 -277 -159 -266 -163 22 -7 462 183 715
310 605 302 989 592 1356 1024 151 176 255 316 354 477 l65 105 -53 149 c-29
82 -63 168 -75 191 -23 44 -41 48 -41 8 0 -54 -295 -607 -407 -763 -123 -172
-533 -608 -552 -588 -5 6 -37 78 -71 160 -131 317 -186 438 -310 690 -184 374
-322 603 -431 716 -72 75 -93 79 -139 30z"/>
<path d="M895 2725 c-46 -23 -91 -80 -106 -133 -23 -78 -15 -245 20 -412 l30
-144 -22 -36 c-12 -19 -59 -93 -105 -164 l-85 -130 7 -150 c3 -83 9 -216 12
-296 9 -219 20 -359 28 -367 4 -5 131 -8 281 -8 250 0 276 2 292 18 16 16 18
42 20 270 0 139 -3 302 -8 362 -14 179 -30 217 -173 425 -41 59 -41 64 -20
194 9 54 -16 44 -36 -15 -17 -48 -41 -60 -68 -36 -9 9 -33 17 -52 19 -26 2
-38 10 -51 33 -42 73 -63 300 -38 416 7 34 22 64 44 88 29 31 40 36 78 36 57
0 93 -25 129 -91 15 -27 29 -53 32 -59 2 -6 8 -5 16 2 17 16 -26 106 -74 152
-41 40 -104 51 -151 26z m60 -801 c36 -37 -11 -86 -51 -54 -14 13 -19 51 -7
63 12 12 41 7 58 -9z m35 -355 c54 -33 90 -71 90 -96 0 -33 -28 -29 -67 9 -29
28 -33 30 -34 12 -1 -10 -2 -32 -4 -49 -3 -47 14 -83 50 -105 111 -69 112
-159 1 -255 -28 -25 -54 -45 -58 -45 -13 0 -81 45 -114 76 -32 30 -46 79 -28
97 11 11 43 -12 59 -43 33 -63 65 -14 46 71 -8 34 -21 54 -60 89 -76 67 -79
141 -8 211 52 52 77 58 127 28z"/>
<path d="M891 1484 c-24 -30 -25 -42 -11 -78 21 -55 50 -22 50 56 0 48 -13 55
-39 22z"/>
<path d="M985 1265 c-3 -8 -7 -22 -10 -31 -8 -26 7 -94 21 -94 19 0 44 40 44
70 0 27 -25 70 -41 70 -5 0 -12 -7 -14 -15z"/>
</g>
</svg>
